<?xml version="1.0" standalone="no"?>
<!DOCTYPE svg PUBLIC "-//W3C//DTD SVG 20010904//EN"
 "http://www.w3.org/TR/2001/REC-SVG-20010904/DTD/svg10.dtd">
<svg version="1.0" xmlns="http://www.w3.org/2000/svg"
 width="1024.000000pt" height="1024.000000pt" viewBox="0 0 1024.000000 1024.000000"
 preserveAspectRatio="xMidYMid meet">

<g transform="translate(0.000000,1024.000000) scale(0.100000,-0.100000)"
fill="#000000" stroke="none">
<path d="M4977 8418 c-138 -143 -228 -248 -222 -258 8 -12 109 -22 133 -13 12
5 69 54 126 111 57 56 109 102 115 102 6 0 57 -45 113 -99 56 -55 113 -105
126 -111 16 -7 45 -8 81 -4 31 5 59 7 64 6 4 -1 7 2 7 6 0 13 -336 368 -355
376 -51 19 -68 9 -188 -116z"/>
<path d="M4565 8283 c-482 -104 -919 -285 -1302 -539 -306 -202 -589 -464
-809 -749 -66 -85 -72 -128 -23 -169 60 -51 78 -40 196 108 339 425 830 784
1363 996 175 69 447 151 603 181 66 12 97 41 97 88 -1 68 -50 101 -125 84z"/>
<path d="M5607 8270 c-34 -27 -43 -70 -23 -109 18 -33 8 -30 241 -87 541 -132
1044 -408 1499 -822 65 -60 84 -72 112 -72 24 0 43 8 59 25 51 50 29 93 -111
223 -430 398 -988 696 -1554 828 -169 40 -189 41 -223 14z"/>
<path d="M4450 7864 c-25 -12 -115 -45 -201 -73 -524 -168 -995 -475 -1339
-871 -60 -69 -128 -151 -151 -182 l-42 -58 -156 0 c-86 0 -190 -5 -231 -10
-218 -28 -390 -211 -390 -415 0 -51 -1 -54 -30 -60 -48 -11 -146 -80 -188
-134 -151 -191 -104 -497 92 -598 l51 -27 -60 -9 c-74 -11 -117 -42 -140 -100
-14 -38 -16 -79 -13 -293 l3 -249 28 -57 c32 -65 110 -141 162 -158 23 -8 35
-18 35 -30 0 -9 3 -31 6 -47 6 -29 5 -29 -31 -25 -28 3 -42 -1 -62 -19 -22
-21 -24 -30 -20 -74 7 -60 75 -301 105 -368 l21 -47 -50 -68 c-66 -88 -143
-245 -171 -352 -22 -82 -23 -101 -23 -475 1 -372 2 -394 23 -470 72 -260 239
-468 467 -582 304 -154 681 -104 960 127 l71 58 29 -24 c64 -51 315 -214 420
-272 182 -100 420 -202 625 -267 120 -37 319 -85 356 -85 49 0 79 30 79 79 0
65 -30 87 -160 116 -344 78 -741 249 -1035 447 -221 149 -212 134 -82 141 80
4 124 11 157 26 l46 20 87 -57 c154 -100 424 -225 638 -296 l81 -27 239 -242
c132 -133 284 -290 338 -349 140 -153 128 -155 326 55 84 89 235 245 334 346
l181 183 100 35 c398 138 743 334 1024 582 35 31 76 66 92 79 l28 23 20 -39
c28 -55 101 -119 153 -132 56 -16 333 -4 407 16 64 18 151 98 170 157 9 28 19
38 39 42 195 40 351 110 455 206 144 132 239 312 268 510 16 113 7 313 -20
414 -27 103 -97 246 -161 330 -27 36 -50 72 -50 79 0 8 7 33 16 57 29 82 84
314 84 356 0 56 -26 83 -80 83 -71 0 -93 -32 -139 -198 -21 -79 -41 -145 -44
-148 -2 -2 -28 11 -58 31 -29 19 -59 35 -66 35 -18 0 -18 -1 32 76 25 38 58
105 72 149 24 72 26 96 27 235 1 85 -2 169 -6 185 l-6 30 241 78 c133 43 247
83 252 88 11 11 20 367 11 404 -3 12 -15 34 -28 50 -17 21 -21 39 -19 76 5 90
-51 233 -124 317 -39 45 -127 102 -157 102 -15 0 -18 9 -18 53 l0 52 44 18
c57 23 109 75 143 140 39 74 39 170 1 247 -15 30 -39 67 -53 82 l-26 28 17 56
c31 106 -11 205 -104 246 -43 19 -57 20 -246 13 -110 -4 -209 -11 -221 -15
-24 -9 -75 -57 -117 -107 l-26 -33 -194 -15 c-106 -9 -224 -18 -263 -21 l-70
-5 -85 77 c-275 248 -559 436 -871 576 -120 54 -382 148 -412 148 -8 0 -31 11
-51 25 -33 22 -47 25 -126 25 l-89 0 -142 -145 -142 -145 -188 0 -187 0 -140
145 -140 146 -83 -2 c-63 -2 -95 -8 -129 -25z m-115 -263 c-80 -36 -110 -94
-122 -233 l-6 -77 -46 -6 c-139 -18 -295 -65 -396 -119 -44 -24 -100 -47 -125
-51 -59 -10 -96 -49 -107 -114 -7 -42 -14 -53 -53 -83 -50 -38 -69 -70 -101
-170 l-21 -68 -200 0 -200 0 33 43 c64 82 306 315 429 413 253 201 490 332
795 440 124 44 192 58 120 25z m1934 -118 c82 -38 215 -108 276 -146 71 -44
266 -185 350 -252 l99 -80 -49 -7 c-28 -3 -152 -16 -278 -28 -125 -11 -257
-25 -295 -29 -37 -5 -70 -6 -73 -2 -3 3 -11 45 -18 92 -17 131 -53 219 -115
287 -18 21 -21 36 -21 122 0 82 2 97 15 92 8 -3 57 -25 109 -49z m-483 -49 c3
-19 3 -39 -2 -44 -9 -8 -331 -23 -894 -40 -184 -6 -370 -12 -412 -13 l-78 -4
0 37 0 37 98 7 c53 3 300 13 547 22 389 13 703 28 727 33 4 0 10 -15 14 -35z
m165 7 c16 -16 29 -33 29 -38 0 -4 -31 -7 -70 -5 l-70 4 0 34 c0 33 1 34 41
34 31 0 47 -6 70 -29z m-33 -176 c64 -19 130 -69 159 -120 32 -57 43 -142 113
-835 11 -107 22 -205 25 -216 5 -21 10 -22 262 -28 633 -16 951 -27 1118 -37
207 -13 182 -6 668 -194 l278 -108 -3 -126 -3 -126 -45 -3 c-44 -3 -44 -3 -26
17 15 17 16 23 6 36 -7 8 -18 15 -25 15 -29 0 -244 79 -310 114 -82 43 -167
56 -363 56 -142 0 -171 -9 -226 -71 -60 -66 -116 -196 -131 -308 -7 -53 -7
-53 -37 -47 -17 3 -84 6 -149 6 l-119 0 2 323 3 322 250 11 c138 6 228 11 200
12 -27 1 -122 7 -210 12 -162 10 -946 40 -1042 40 l-53 0 0 -415 0 -415 -80 0
-79 0 -4 468 c-2 257 -8 537 -15 622 -6 85 -16 259 -22 385 -12 263 -30 416
-53 461 -24 46 -91 100 -140 112 -23 6 -154 13 -292 16 -137 3 -333 9 -435 13
l-185 8 270 5 c575 11 638 11 693 -5z m-1215 -12 c-13 -2 -33 -2 -45 0 -13 2
-3 4 22 4 25 0 35 -2 23 -4z m124 1 c-3 -3 -12 -4 -19 -1 -8 3 -5 6 6 6 11 1
17 -2 13 -5z m403 -123 c314 -38 499 -77 560 -121 38 -27 121 -130 114 -142
-3 -4 -20 -8 -37 -8 -26 0 -37 7 -50 30 -32 53 -69 70 -220 100 -181 36 -490
78 -677 92 -184 13 -608 4 -762 -17 -191 -26 -362 -79 -420 -132 -17 -15 -18
-14 -18 10 0 30 25 50 126 100 86 44 193 72 349 91 175 23 209 24 550 21 237
-3 351 -8 485 -24z m3080 -40 c21 -40 15 -41 -155 -41 l-165 0 -39 -35 c-21
-19 -44 -35 -50 -35 -18 0 18 56 62 96 l37 34 150 0 c137 0 150 -2 160 -19z
m-3596 -128 c-140 -184 -240 -301 -280 -323 -31 -18 -44 -31 -44 -47 l0 -23
295 0 295 0 18 38 c11 20 43 108 72 195 l52 159 37 -7 c48 -9 53 -13 42 -33
-5 -10 -16 -42 -24 -72 -8 -30 -29 -100 -46 -155 -33 -107 -37 -147 -20 -192
23 -63 127 -142 187 -143 12 0 22 -2 22 -5 0 -3 -31 -74 -70 -159 -38 -85 -70
-158 -70 -162 0 -4 57 -4 128 -1 147 6 347 42 371 66 10 10 25 52 35 94 l18
77 65 0 c60 0 66 2 100 35 20 19 40 35 45 35 4 0 8 -205 8 -455 l0 -455 -244
0 -245 0 -6 58 c-17 157 -65 274 -140 337 -25 22 -101 94 -168 161 -103 101
-129 122 -167 132 -115 29 -284 40 -839 53 -472 12 -505 11 -535 -5 -18 -9
-40 -30 -49 -46 -35 -59 -46 -57 291 -64 366 -7 639 -22 742 -41 l75 -14 -119
4 c-185 7 -157 -1 160 -44 77 -11 170 -27 205 -36 168 -43 300 -170 349 -335
11 -36 28 -135 40 -220 11 -85 25 -183 31 -217 12 -68 4 -136 -11 -98 l-9 20
-1 -20 c-3 -52 -31 59 -55 213 -28 180 -52 291 -67 307 -6 6 -7 2 -3 -10 6
-20 6 -20 -6 0 -31 49 -129 128 -206 166 -182 89 -389 93 -513 10 -107 -72
-182 -180 -211 -302 l-13 -56 -37 10 -37 9 -4 206 c-3 203 -4 208 -31 264 -33
67 -102 117 -176 129 -65 10 -263 -1 -230 -13 l24 -9 -22 -17 c-12 -9 -46 -32
-76 -49 -81 -48 -89 -72 -85 -243 3 -137 4 -140 31 -167 l27 -28 177 -3 c161
-4 178 -3 190 14 9 13 13 60 13 172 0 168 -9 206 -57 237 -35 24 -109 44 -136
38 -12 -3 -19 -3 -15 2 11 11 140 17 133 5 -3 -5 0 -7 8 -4 20 7 67 -13 90
-39 47 -55 51 -72 55 -289 l4 -208 -280 0 -280 0 -25 30 -25 29 -4 423 c-5
482 -6 490 -73 523 -38 18 -64 19 -466 20 -345 0 -429 3 -442 14 -16 13 -35
12 -97 -3 -21 -5 -22 -5 -5 3 18 9 17 10 -8 10 -19 1 -26 -3 -21 -10 5 -8 -1
-10 -20 -7 -14 3 -26 2 -26 -2 0 -8 -55 -24 -77 -23 -7 0 -11 -3 -8 -7 3 -5 1
-11 -5 -15 -5 -3 -10 -15 -10 -26 0 -11 -3 -18 -7 -16 -5 3 -7 -192 -5 -433
l3 -438 -41 -35 c-23 -19 -50 -37 -61 -40 -17 -5 -19 0 -19 40 0 32 5 50 18
59 15 11 17 32 17 181 0 188 -4 202 -72 244 -28 17 -46 21 -97 17 -68 -4 -99
-21 -144 -81 l-24 -32 6 30 c11 49 59 118 102 147 24 16 69 33 107 40 l65 12
4 126 c3 104 8 134 27 177 27 61 83 116 150 147 45 21 53 21 686 21 l640 0
315 -81 315 -82 285 -6 c157 -3 362 -10 456 -17 94 -6 186 -9 204 -7 30 3 27
5 -41 32 -86 34 -183 45 -634 76 -223 15 -304 24 -350 39 -33 11 -103 33 -155
50 l-95 30 161 0 c180 1 196 7 178 59 -13 37 -56 43 -316 40 -215 -3 -217 -3
-203 17 8 11 30 47 49 81 70 121 198 183 451 218 140 20 173 22 384 24 l173 2
-28 -37z m3437 11 c-56 -24 -117 -80 -141 -129 -18 -38 -28 -46 -63 -56 -92
-23 -191 -53 -387 -115 -267 -85 -270 -86 -264 -96 5 -7 -19 -12 -53 -11 -7 1
-11 -2 -9 -6 4 -6 -142 -59 -280 -101 -57 -18 -71 -25 -67 -39 4 -14 -12 -23
-89 -45 -51 -15 -164 -52 -251 -81 l-157 -53 -7 26 c-4 15 -7 45 -7 66 -1 33
3 40 24 47 14 4 88 26 165 49 77 23 259 79 405 125 146 45 420 129 610 185
190 57 350 107 357 112 7 6 29 39 50 74 l37 64 81 0 c80 -1 80 -1 46 -16z
m-2676 -58 c62 -13 109 -27 108 -33 -1 -6 -31 -56 -67 -110 -35 -55 -83 -135
-107 -179 -50 -94 -77 -134 -90 -134 -18 0 -110 97 -105 111 6 16 66 225 90
312 19 67 13 66 171 33z m2810 -8 c26 -29 27 -33 14 -57 -13 -22 -25 -27 -82
-35 -87 -11 -100 -6 -86 34 11 31 82 89 110 90 9 0 28 -14 44 -32z m-577 5
c-10 -2 -26 -2 -35 0 -10 3 -2 5 17 5 19 0 27 -2 18 -5z m-278 -39 c-124 -19
-274 -41 -335 -49 -60 -8 -175 -24 -255 -35 -303 -41 -515 -70 -522 -70 -5 0
-8 11 -8 25 0 14 6 25 13 25 6 0 188 21 402 46 839 97 1120 121 705 58z m435
5 c-44 -20 -630 -162 -863 -208 -322 -65 -655 -122 -663 -113 -4 4 -9 30 -13
58 l-6 51 66 7 c99 10 958 132 1129 161 169 28 333 52 355 53 9 0 7 -3 -5 -9z
m535 -129 c39 -76 14 -152 -61 -191 l-39 -19 0 34 c0 23 9 45 26 65 19 23 27
46 31 91 3 33 10 60 14 60 5 0 18 -18 29 -40z m-2781 -144 l2 -164 -38 4 c-21
3 -63 8 -94 12 l-57 7 65 115 c62 112 110 190 116 190 2 0 5 -74 6 -164z
m2569 137 c3 -44 21 -89 42 -108 26 -24 28 -85 2 -85 -25 0 -60 27 -77 60 -20
38 -19 110 1 138 20 29 29 28 32 -5z m-2224 -35 c3 -29 6 -108 6 -175 l0 -122
-27 -3 c-16 -2 -56 -1 -90 0 l-63 4 0 174 0 174 84 0 83 0 7 -52z m1936 -288
l0 -70 -39 0 c-34 0 -45 -6 -80 -46 -29 -33 -42 -58 -47 -91 l-7 -46 -56 7
c-31 3 -112 13 -181 21 -69 8 -143 15 -165 15 -39 0 -85 22 -85 40 0 4 31 20
68 34 52 20 577 203 590 205 1 1 2 -30 2 -69z m280 -59 c0 -40 -14 -61 -42
-61 -16 0 -18 9 -18 71 l0 70 30 -21 c24 -17 30 -29 30 -59z m-2620 -31 c52
-5 98 -10 101 -10 3 0 -6 -40 -20 -90 -29 -104 -24 -100 -182 -124 -53 -8
-114 -18 -135 -22 -30 -5 -36 -4 -31 7 116 271 110 260 142 255 17 -3 73 -10
125 -16z m-2203 -82 l23 -21 0 -363 0 -363 -29 -16 c-24 -12 -46 -13 -128 -5
-54 5 -284 10 -510 10 -360 0 -413 2 -413 15 0 13 61 15 493 15 448 0 495 2
527 18 31 15 35 22 36 58 1 23 -4 42 -10 43 -67 12 -283 19 -628 20 l-418 1 0
25 0 24 516 3 516 3 19 24 c25 30 24 44 -5 78 -28 33 21 30 -628 32 -411 1
-418 1 -418 21 0 11 1 21 3 21 1 1 232 5 512 8 281 4 518 11 528 15 12 6 17
20 17 47 0 70 4 69 -415 69 -203 0 -434 3 -512 7 -130 6 -143 8 -143 25 0 10
6 18 13 18 6 -1 236 1 509 4 323 3 504 8 517 15 43 23 38 82 -9 106 -25 13
-100 15 -518 13 -334 -2 -488 0 -485 7 2 6 16 18 31 28 24 15 74 16 506 17
479 0 480 0 503 -22z m4969 -81 c11 -7 33 -22 48 -34 33 -26 32 -63 -1 -77
-21 -10 -20 -12 23 -60 59 -65 71 -86 47 -86 -10 1 -94 32 -188 69 -156 63
-170 71 -167 92 3 29 47 77 87 95 37 17 123 17 151 1z m-1728 -226 c1 -1 2
-147 2 -326 l0 -325 -97 0 c-54 0 -115 -3 -135 -6 l-38 -7 0 338 0 337 133 -5
c72 -3 133 -6 135 -6z m350 -7 l92 -7 0 -321 0 -322 -185 1 -185 0 0 328 0
327 93 0 c52 0 135 -3 185 -6z m-4968 -141 c94 -55 65 -198 -40 -198 -47 0
-76 25 -90 76 -13 46 5 97 41 123 30 20 54 20 89 -1z m1907 -27 c25 -21 28
-31 28 -81 0 -50 -3 -60 -28 -81 -19 -16 -40 -24 -65 -24 -61 1 -92 38 -92
110 0 86 93 131 157 76z m3777 -347 c-25 -46 -60 -109 -76 -139 -31 -56 -48
-80 -48 -67 0 14 92 192 129 249 52 82 49 56 -5 -43z m235 -124 c45 -23 108
-101 132 -164 34 -85 38 -235 9 -321 -57 -174 -173 -249 -291 -190 -110 56
-174 257 -135 423 45 193 176 309 285 252z m-3720 -46 l30 -34 1 -221 c0 -210
-1 -223 -21 -248 -46 -58 17 -55 -1152 -57 l-1076 -2 -34 22 c-31 19 -67 79
-67 111 0 5 392 9 1007 9 971 -1 1007 0 1032 18 14 11 35 37 46 60 11 22 35
57 53 77 17 20 32 44 32 52 0 12 -7 14 -32 9 -49 -10 -90 -41 -126 -96 -32
-48 -33 -49 -86 -49 -29 0 -101 3 -159 7 l-107 6 0 103 c0 57 -5 114 -11 128
-27 58 -7 56 -846 54 l-768 -3 0 -135 c0 -168 1 -162 -32 -158 l-28 3 -3 187
-2 187 42 4 c24 3 545 3 1159 2 l1117 -2 31 -34z m869 -73 c57 -114 73 -180
79 -327 7 -151 -11 -256 -62 -366 -27 -58 -38 -73 -55 -73 -12 0 -20 3 -18 8
2 4 16 31 32 61 102 195 97 501 -12 730 -21 45 -31 74 -22 66 9 -9 35 -53 58
-99z m702 94 c0 -5 -1 -10 -2 -10 -2 0 -44 -3 -95 -7 -94 -6 -143 0 -143 17 0
6 48 10 120 10 73 0 120 -4 120 -10z m-944 -51 c88 -42 153 -144 179 -284 20
-102 19 -157 -4 -248 -48 -187 -150 -286 -284 -275 -125 10 -219 135 -248 332
-25 168 57 395 165 454 85 47 130 52 192 21z m-2654 -191 c2 -51 2 -99 0 -105
-3 -9 -32 -13 -98 -13 l-94 0 0 100 0 99 63 4 c34 2 76 4 94 5 l32 2 3 -92z
m458 62 c0 -38 39 -80 73 -80 37 0 77 36 77 69 0 27 2 28 61 35 78 8 282 8
332 0 l37 -7 0 -98 0 -99 -485 0 -485 0 0 85 c0 50 4 85 10 85 6 0 10 7 10 15
0 15 33 17 278 23 l92 2 0 -30z m838 -77 l3 -103 -96 0 -95 0 0 99 0 100 53 4
c28 2 70 3 92 3 l40 -1 3 -102z m2722 -138 l0 -35 -331 0 -331 0 -44 32 c-24
17 -44 33 -44 35 0 2 169 3 375 3 l375 0 0 -35z m985 -37 c11 -76 37 -142 81
-210 l44 -68 -51 0 c-35 0 -60 6 -79 20 -46 33 -107 133 -120 198 -6 31 -14
67 -17 80 -5 21 -3 22 65 22 l70 0 7 -42z m245 -15 c18 -84 43 -146 83 -202
l35 -48 -61 -6 c-71 -6 -85 2 -139 86 -31 48 -68 160 -68 204 0 22 4 23 69 23
l70 0 11 -57z m-540 -75 c21 -80 30 -103 60 -148 33 -50 36 -60 17 -60 -7 0
-28 -16 -47 -35 l-34 -35 -344 0 -344 0 41 46 c54 61 86 118 112 197 16 50 27
67 43 70 11 2 125 5 253 6 l232 1 11 -42z m-2550 -240 c12 -29 34 -71 49 -93
15 -22 30 -45 33 -51 5 -7 -21 -11 -76 -13 -80 -2 -84 -1 -105 25 -11 15 -21
33 -21 40 0 8 -5 14 -11 14 -5 0 -7 5 -4 10 10 16 -5 51 -18 44 -7 -4 -8 -3
-4 2 8 9 117 71 128 73 4 0 17 -23 29 -51z m-2006 -114 c16 -25 46 -59 68 -74
l38 -28 -50 -7 c-46 -6 -55 -4 -91 21 -39 27 -71 64 -96 111 -12 23 -11 23 45
23 57 -1 57 -1 86 -46z m1706 -15 c17 -28 30 -52 28 -53 -2 -1 -39 -7 -83 -13
-60 -8 -95 -8 -140 1 -43 9 -157 10 -407 6 -342 -5 -348 -5 -363 -27 -8 -12
-33 -35 -55 -53 l-39 -31 -49 17 -49 17 40 41 c22 23 53 65 69 94 l30 52 493
0 493 0 32 -51z m-1898 -172 l37 -24 -45 -33 c-25 -18 -46 -31 -48 -29 -1 2
-10 34 -19 71 -9 37 -20 75 -24 85 -4 12 5 8 28 -14 19 -17 51 -42 71 -56z
m5841 -15 c125 -62 220 -173 263 -309 8 -26 18 -95 21 -153 5 -87 2 -120 -15
-187 -55 -218 -214 -351 -443 -370 l-69 -6 0 147 c0 110 3 146 13 146 32 0 89
23 118 47 97 82 92 283 -10 350 -29 20 -47 23 -127 23 l-94 0 0 -489 c0 -275
-4 -492 -9 -495 -12 -8 -305 -26 -311 -19 -3 2 -5 303 -5 668 l0 663 150 10
c82 5 218 9 300 8 149 -1 151 -1 218 -34z m-1037 -68 c109 -30 224 -148 274
-281 40 -106 45 -276 12 -388 -32 -106 -126 -223 -220 -273 -67 -36 -165 -62
-234 -62 l-48 0 0 144 0 143 38 7 c152 24 210 232 99 354 -30 32 -87 45 -173
37 l-74 -7 0 -509 c0 -475 -1 -508 -17 -513 -10 -2 -82 -8 -160 -12 l-143 -7
0 38 0 37 -97 -6 c-54 -4 -119 -9 -144 -12 l-45 -5 -39 112 -38 112 -104 -7
c-56 -3 -150 -9 -208 -12 l-104 -7 -16 -56 c-46 -159 -57 -192 -68 -196 -15
-5 -341 -24 -345 -20 -2 2 31 106 73 232 42 125 132 408 200 628 68 220 130
418 137 440 l13 40 150 7 c83 3 178 9 211 12 l62 5 26 -72 c14 -40 46 -139 72
-222 25 -82 94 -294 152 -470 l107 -320 3 553 2 552 33 1 c17 0 124 7 237 14
221 14 296 12 376 -11z m-1759 -546 c-4 -458 -6 -499 -25 -571 -25 -90 -56
-140 -139 -218 -88 -84 -164 -117 -308 -134 -64 -7 -195 16 -260 46 -71 33
-155 120 -196 204 l-34 70 -3 514 c-2 283 1 517 5 521 4 4 79 11 166 15 l157
7 0 -462 c0 -496 -1 -488 53 -538 55 -52 172 -33 225 36 l27 35 5 468 c3 257
8 470 11 474 6 5 179 20 278 24 l44 1 -6 -492z m-1357 386 c147 -41 267 -173
305 -336 22 -94 20 -251 -5 -331 -24 -77 -89 -170 -148 -211 -23 -16 -42 -34
-42 -41 0 -14 68 -107 188 -260 60 -76 69 -91 54 -97 -9 -4 -91 -11 -181 -15
l-164 -8 -42 50 c-23 28 -74 94 -114 149 l-71 99 0 142 0 143 48 7 c100 14
162 89 162 197 0 67 -32 133 -80 166 -28 19 -46 22 -126 22 l-94 0 0 -489 0
-489 -52 -6 c-29 -3 -104 -8 -165 -12 l-113 -7 0 662 c0 522 3 661 13 662 198
15 448 26 502 23 39 -3 95 -12 125 -20z m-1115 -39 c120 -31 209 -88 293 -189
45 -53 92 -135 92 -160 0 -23 -52 -34 -223 -47 -162 -13 -163 -13 -211 10 -86
42 -214 12 -269 -61 -44 -59 -47 -86 -47 -377 1 -288 6 -328 47 -373 67 -74
211 -77 296 -7 43 35 63 78 72 152 l7 57 -70 0 -70 0 -2 169 -1 169 53 6 c68
7 364 26 401 26 l27 0 0 -337 0 -336 -27 -36 c-56 -74 -150 -165 -213 -206
-91 -58 -159 -83 -259 -95 -170 -21 -325 28 -445 141 -67 62 -124 156 -146
238 -15 58 -14 755 1 820 6 25 29 83 50 129 75 157 230 277 404 312 67 13 177
11 240 -5z m3009 -1439 c18 -24 49 -48 85 -65 54 -25 64 -26 279 -31 l223 -5
-138 -67 c-76 -37 -176 -79 -223 -95 l-85 -27 -250 -256 c-137 -140 -296 -302
-352 -360 l-101 -104 -209 213 c-114 118 -271 278 -348 357 l-140 143 -90 30
c-50 17 -131 50 -180 74 l-89 44 94 12 c52 6 119 19 147 28 50 15 56 15 110
-3 47 -15 88 -19 213 -19 135 0 165 3 230 24 66 20 98 23 286 27 135 2 238 9
283 18 77 16 157 54 192 92 13 14 26 21 29 17 3 -5 19 -25 34 -47z"/>
<path d="M3538 6433 c7 -3 16 -2 19 1 4 3 -2 6 -13 5 -11 0 -14 -3 -6 -6z"/>
<path d="M4008 6373 c6 -2 18 -2 25 0 6 3 1 5 -13 5 -14 0 -19 -2 -12 -5z"/>
<path d="M5617 5948 c-58 -116 -64 -141 -43 -173 13 -20 25 -24 73 -27 55 -3
58 -4 61 -30 2 -20 10 -30 27 -34 36 -9 45 2 45 60 0 85 -19 164 -42 172 -26
8 -30 2 -32 -48 -1 -39 -4 -43 -28 -46 -34 -4 -34 0 -3 46 14 20 25 42 25 48
0 6 14 30 30 52 43 60 40 72 -18 72 l-48 0 -47 -92z"/>
<path d="M3658 5993 c7 -3 16 -2 19 1 4 3 -2 6 -13 5 -11 0 -14 -3 -6 -6z"/>
<path d="M5045 5751 c-3 -5 -1 -12 5 -16 5 -3 10 -3 10 1 0 4 9 -1 20 -11 11
-10 17 -22 13 -28 -4 -6 -1 -7 6 -2 9 5 5 15 -15 36 -31 33 -31 32 -39 20z"/>
<path d="M6460 5570 c0 -19 3 -21 12 -12 9 9 9 15 0 24 -9 9 -12 7 -12 -12z"/>
<path d="M7770 5248 c-79 -54 -130 -172 -130 -303 0 -134 53 -255 130 -296 59
-32 107 -21 164 40 36 38 31 46 -17 26 -101 -42 -202 14 -242 135 -24 73 -17
200 14 261 44 85 113 139 178 139 22 0 25 2 13 10 -26 17 -76 11 -110 -12z"/>
<path d="M7790 5144 c-47 -40 -70 -94 -70 -161 1 -161 128 -244 223 -145 59
62 75 169 36 250 -40 81 -128 107 -189 56z"/>
<path d="M3662 5137 c-27 -28 -30 -96 -6 -132 21 -32 66 -47 103 -34 26 9 61
46 61 65 0 4 -33 4 -73 1 -80 -6 -101 0 -95 29 3 17 13 19 86 19 91 0 100 8
57 50 -33 34 -102 35 -133 2z"/>
<path d="M4652 5189 c-174 -86 -230 -438 -100 -633 63 -96 144 -129 221 -90
37 19 84 61 99 87 9 17 8 17 -14 3 -42 -27 -109 -31 -154 -8 -51 26 -78 56
-106 117 -20 44 -23 65 -23 175 0 109 3 132 24 177 44 98 131 155 212 139 39
-8 29 8 -21 34 -50 26 -84 25 -138 -1z"/>
<path d="M4789 4901 c-24 -24 -29 -38 -29 -76 0 -38 5 -52 29 -76 40 -39 74
-38 117 5 28 28 34 42 34 76 0 53 -42 100 -90 100 -22 0 -41 -9 -61 -29z"/>
<path d="M6502 4673 c-7 -3 -19 -18 -27 -33 -13 -25 -13 -31 0 -43 8 -8 11
-17 8 -21 -11 -11 333 -6 366 5 41 15 39 23 -6 27 -21 1 -44 10 -53 19 -8 9
-10 13 -3 9 6 -3 16 2 22 11 8 14 10 15 11 3 0 -13 1 -13 10 0 7 11 10 11 10
2 0 -7 4 -11 9 -7 5 3 12 1 15 -4 4 -5 -2 -12 -11 -14 -14 -4 -13 -5 5 -6 26
-1 27 2 6 34 -16 25 -16 25 -183 24 -91 0 -172 -3 -179 -6z"/>
<path d="M6808 4623 c7 -3 16 -2 19 1 4 3 -2 6 -13 5 -11 0 -14 -3 -6 -6z"/>
<path d="M5642 3517 c-28 -100 -52 -189 -52 -197 0 -13 16 -14 105 -9 58 3
107 8 110 11 6 6 -93 359 -104 370 -3 4 -30 -75 -59 -175z"/>
<path d="M5066 2298 c-75 -20 -146 -118 -146 -199 0 -123 116 -222 239 -205
171 23 244 207 133 336 -60 71 -132 93 -226 68z"/>
<path d="M8374 5103 c-58 -11 -81 -107 -35 -144 53 -43 141 -8 141 56 0 18 -3
41 -6 50 -6 16 -56 46 -71 44 -4 -1 -18 -4 -29 -6z"/>
<path d="M7171 2483 c-8 -3 -63 -45 -122 -92 -380 -307 -838 -534 -1292 -641
-120 -28 -140 -36 -162 -62 -32 -38 -32 -81 0 -113 32 -33 58 -32 228 10 479
119 934 346 1327 661 66 53 127 108 134 123 36 70 -37 144 -113 114z"/>
</g>
</svg>
